<svg xmlns="http://www.w3.org/2000/svg" xmlns:xlink="http://www.w3.org/1999/xlink" version="1.1" width="256" height="256" viewBox="0 0 256 256" xml:space="preserve">

<defs>
</defs>
<g style="stroke: none; stroke-width: 0; stroke-dasharray: none; stroke-linecap: butt; stroke-linejoin: miter; stroke-miterlimit: 10; fill: none; fill-rule: nonzero; opacity: 1;" transform="translate(1.4065934065934016 1.4065934065934016) scale(2.81 2.81)" >
	<path d="M 83.875 76.716 c -1.828 -1.616 -2.023 -4.351 -0.444 -6.227 C 87.729 65.384 90 59.388 90 53.148 c 0 -10.834 -7.029 -20.883 -18.36 -26.321 C 66.61 14.96 52.919 6.421 36.852 6.421 C 16.532 6.421 0 20.073 0 36.852 c 0 6.239 2.271 12.236 6.569 17.341 c 1.579 1.876 1.383 4.61 -0.444 6.226 l -5.787 5.114 c -0.312 0.275 -0.42 0.714 -0.273 1.104 c 0.147 0.389 0.52 0.646 0.935 0.646 h 19.519 c 6.393 10.062 18.826 16.297 32.629 16.297 H 89 c 0.416 0 0.788 -0.257 0.936 -0.646 c 0.146 -0.39 0.038 -0.828 -0.273 -1.104 L 83.875 76.716 z M 7.449 61.917 c 2.648 -2.34 2.934 -6.298 0.65 -9.011 C 4.109 48.165 2 42.614 2 36.852 C 2 21.175 17.635 8.421 36.852 8.421 s 34.852 12.754 34.852 28.431 c 0 15.676 -15.635 28.43 -34.852 28.43 H 3.642 L 7.449 61.917 z M 53.148 81.579 c -12.623 0 -24.016 -5.439 -30.232 -14.297 h 13.936 c 20.32 0 36.852 -13.651 36.852 -30.43 c 0 -2.505 -0.376 -4.937 -1.07 -7.267 C 82.169 34.848 88 43.692 88 53.148 c 0 5.762 -2.109 11.313 -6.099 16.053 c -2.284 2.714 -1.999 6.672 0.649 9.013 l 3.808 3.365 H 53.148 z" style="stroke: none; stroke-width: 1; stroke-dasharray: none; stroke-linecap: butt; stroke-linejoin: miter; stroke-miterlimit: 10; fill: rgb(0,0,0); fill-rule: nonzero; opacity: 1;" transform=" matrix(1 0 0 1 0 0) " stroke-linecap="round" />
	<path d="M 16.495 30.145 c -3.333 0 -6.044 2.711 -6.044 6.044 s 2.711 6.045 6.044 6.045 s 6.045 -2.712 6.045 -6.045 S 19.828 30.145 16.495 30.145 z M 16.495 40.234 c -2.23 0 -4.044 -1.814 -4.044 -4.045 c 0 -2.23 1.814 -4.044 4.044 -4.044 c 2.23 0 4.045 1.814 4.045 4.044 C 20.54 38.42 18.726 40.234 16.495 40.234 z" style="stroke: none; stroke-width: 1; stroke-dasharray: none; stroke-linecap: butt; stroke-linejoin: miter; stroke-miterlimit: 10; fill: rgb(0,0,0); fill-rule: nonzero; opacity: 1;" transform=" matrix(1 0 0 1 0 0) " stroke-linecap="round" />
	<path d="M 42.54 36.189 c 0 -3.333 -2.712 -6.044 -6.045 -6.044 s -6.044 2.711 -6.044 6.044 s 2.711 6.045 6.044 6.045 S 42.54 39.522 42.54 36.189 z M 36.495 40.234 c -2.23 0 -4.044 -1.814 -4.044 -4.045 c 0 -2.23 1.814 -4.044 4.044 -4.044 c 2.23 0 4.045 1.814 4.045 4.044 C 40.54 38.42 38.726 40.234 36.495 40.234 z" style="stroke: none; stroke-width: 1; stroke-dasharray: none; stroke-linecap: butt; stroke-linejoin: miter; stroke-miterlimit: 10; fill: rgb(0,0,0); fill-rule: nonzero; opacity: 1;" transform=" matrix(1 0 0 1 0 0) " stroke-linecap="round" />
	<path d="M 56.495 42.234 c 3.333 0 6.045 -2.712 6.045 -6.045 s -2.712 -6.044 -6.045 -6.044 s -6.044 2.711 -6.044 6.044 S 53.162 42.234 56.495 42.234 z M 56.495 32.145 c 2.23 0 4.045 1.814 4.045 4.044 c 0 2.23 -1.814 4.045 -4.045 4.045 c -2.229 0 -4.044 -1.814 -4.044 -4.045 C 52.451 33.959 54.266 32.145 56.495 32.145 z" style="stroke: none; stroke-width: 1; stroke-dasharray: none; stroke-linecap: butt; stroke-linejoin: miter; stroke-miterlimit: 10; fill: rgb(0,0,0); fill-rule: nonzero; opacity: 1;" transform=" matrix(1 0 0 1 0 0) " stroke-linecap="round" />
</g>
</svg>