<svg xmlns="http://www.w3.org/2000/svg" xmlns:xlink="http://www.w3.org/1999/xlink" version="1.1" width="256" height="256" viewBox="0 0 256 256" xml:space="preserve">

<defs>
</defs>
<g style="stroke: none; stroke-width: 0; stroke-dasharray: none; stroke-linecap: butt; stroke-linejoin: miter; stroke-miterlimit: 10; fill: none; fill-rule: nonzero; opacity: 1;" transform="translate(1.4065934065934016 1.4065934065934016) scale(2.81 2.81)" >
	<path d="M 87.978 69.928 c -1.117 0 -2.022 -0.906 -2.022 -2.022 V 16.688 c 0 -1.148 -0.934 -2.082 -2.082 -2.082 h -72.34 c -1.117 0 -2.022 -0.906 -2.022 -2.022 s 0.906 -2.022 2.022 -2.022 h 72.34 c 3.378 0 6.127 2.749 6.127 6.127 v 51.218 C 90 69.023 89.094 69.928 87.978 69.928 z" style="stroke: none; stroke-width: 1; stroke-dasharray: none; stroke-linecap: butt; stroke-linejoin: miter; stroke-miterlimit: 10; fill: rgb(87,85,85); fill-rule: nonzero; opacity: 1;" transform=" matrix(1 0 0 1 0 0) " stroke-linecap="round" />
	<path d="M 76.445 20.012 H 4.104 C 1.838 20.012 0 21.85 0 24.116 v 51.218 c 0 2.267 1.838 4.104 4.104 4.104 h 72.34 c 2.267 0 4.104 -1.838 4.104 -4.104 V 24.116 C 80.549 21.85 78.711 20.012 76.445 20.012 z M 32.645 32.646 c 3.51 0 6.355 2.845 6.355 6.355 c 0 3.51 -2.845 6.355 -6.355 6.355 c -3.51 0 -6.355 -2.845 -6.355 -6.355 C 26.29 35.492 29.135 32.646 32.645 32.646 z M 72.735 74.931 H 7.814 c -2.034 0 -3.683 -1.649 -3.683 -3.683 l 13.657 -16.284 c 2.464 -2.938 6.932 -3.086 9.585 -0.318 l 0.862 0.899 c 2.677 2.793 7.194 2.613 9.64 -0.384 l 6.904 -8.459 c 2.514 -3.08 7.19 -3.17 9.82 -0.188 l 21.82 24.735 C 76.418 73.282 74.769 74.931 72.735 74.931 z" style="stroke: none; stroke-width: 1; stroke-dasharray: none; stroke-linecap: butt; stroke-linejoin: miter; stroke-miterlimit: 10; fill: rgb(87,85,85); fill-rule: nonzero; opacity: 1;" transform=" matrix(1 0 0 1 0 0) " stroke-linecap="round" />
</g>
</svg>